<svg version="1.1" id="Layer_11" xmlns="http://www.w3.org/2000/svg" xmlns:xlink="http://www.w3.org/1999/xlink" x="0px" y="0px"
	 width="30px" viewBox="0 0 225 225" enable-background="new 0 0 225 225" xml:space="preserve" class="rounded-circle">
<path fill="#00C3A5" opacity="1.000000" stroke="none" 
	d="
M105.000000,226.000000 
	C70.000000,226.000000 35.500004,226.000000 1.000005,226.000000 
	C1.000003,151.000000 1.000003,76.000015 1.000002,1.000015 
	C75.999992,1.000010 150.999985,1.000010 225.999969,1.000005 
	C225.999985,75.999985 225.999985,150.999969 226.000000,225.999969 
	C185.833328,226.000000 145.666672,226.000000 105.000000,226.000000 
M86.195663,182.527252 
	C89.723129,184.582504 89.624161,181.004471 90.419205,179.535492 
	C102.071426,158.005630 118.089066,140.535217 138.653564,127.251167 
	C153.460938,117.686035 169.542099,111.169762 186.905060,107.586586 
	C186.831757,106.644112 186.905792,105.964745 186.713699,105.371567 
	C184.010529,97.023476 181.271133,88.687111 178.569595,80.436638 
	C127.505463,84.655106 77.869041,120.038483 56.689907,163.578125 
	C66.295868,169.725189 75.944733,175.899704 86.195663,182.527252 
M107.646645,96.067406 
	C114.404747,93.302254 121.219765,90.663574 127.874481,87.668716 
	C129.258987,87.045639 131.039551,85.043068 130.962143,83.778809 
	C130.140884,70.364204 128.980789,56.970333 127.896461,43.350853 
	C118.118965,43.350853 108.729675,43.350853 99.146431,43.350853 
	C97.761253,59.336315 96.400520,75.039711 95.026001,90.902184 
	C79.314491,87.223106 64.009064,83.639122 48.441830,79.993828 
	C45.444256,89.326462 42.579838,98.244514 39.662815,107.326363 
	C50.008347,111.698715 59.747513,115.919304 69.602844,119.848541 
	C70.843262,120.343094 73.197075,119.832649 74.185936,118.893661 
	C83.930977,109.640015 95.006088,102.383522 107.646645,96.067406 
M143.403641,130.866394 
	C134.994293,136.829620 128.229736,144.308914 123.296188,153.336746 
	C122.535660,154.728409 122.316139,157.477768 123.167557,158.520554 
	C130.094955,167.004959 137.336945,175.232483 144.767151,183.868271 
	C152.572983,178.191437 160.170334,172.666214 167.934906,167.019379 
	C160.670456,154.956696 153.685852,143.303818 146.593018,131.717163 
	C146.167175,131.021515 144.877182,130.854858 143.403641,130.866394 
z"/>
<path fill="#FDFEFE" opacity="1.000000" stroke="none" 
	d="
M85.894623,182.300735 
	C75.944733,175.899704 66.295868,169.725189 56.689907,163.578125 
	C77.869041,120.038483 127.505463,84.655106 178.569595,80.436638 
	C181.271133,88.687111 184.010529,97.023476 186.713699,105.371567 
	C186.905792,105.964745 186.831757,106.644112 186.905060,107.586586 
	C169.542099,111.169762 153.460938,117.686035 138.653564,127.251167 
	C118.089066,140.535217 102.071426,158.005630 90.419205,179.535492 
	C89.624161,181.004471 89.723129,184.582504 85.894623,182.300735 
z"/>
<path fill="#FCFEFE" opacity="1.000000" stroke="none" 
	d="
M107.307602,96.229675 
	C95.006088,102.383522 83.930977,109.640015 74.185936,118.893661 
	C73.197075,119.832649 70.843262,120.343094 69.602844,119.848541 
	C59.747513,115.919304 50.008347,111.698715 39.662815,107.326363 
	C42.579838,98.244514 45.444256,89.326462 48.441830,79.993828 
	C64.009064,83.639122 79.314491,87.223106 95.026001,90.902184 
	C96.400520,75.039711 97.761253,59.336315 99.146431,43.350853 
	C108.729675,43.350853 118.118965,43.350853 127.896461,43.350853 
	C128.980789,56.970333 130.140884,70.364204 130.962143,83.778809 
	C131.039551,85.043068 129.258987,87.045639 127.874481,87.668716 
	C121.219765,90.663574 114.404747,93.302254 107.307602,96.229675 
z"/>
<path fill="#FCFEFE" opacity="1.000000" stroke="none" 
	d="
M143.696472,130.654221 
	C144.877182,130.854858 146.167175,131.021515 146.593018,131.717163 
	C153.685852,143.303818 160.670456,154.956696 167.934906,167.019379 
	C160.170334,172.666214 152.572983,178.191437 144.767151,183.868271 
	C137.336945,175.232483 130.094955,167.004959 123.167557,158.520554 
	C122.316139,157.477768 122.535660,154.728409 123.296188,153.336746 
	C128.229736,144.308914 134.994293,136.829620 143.696472,130.654221 
z"/>
</svg>