<svg version="1.1" id="Layer_1" xmlns="http://www.w3.org/2000/svg" xmlns:xlink="http://www.w3.org/1999/xlink" x="0px" y="0px"
	 width="30px" viewBox="0 0 225 225" enable-background="new 0 0 225 225" xml:space="preserve" class="rounded-circle">
<path fill="#3C5A99" opacity="1.000000" stroke="none" 
	d="
M1.000000,213.000000 
	C1.000000,146.979111 1.000000,80.958206 1.000500,14.096306 
	C3.244997,6.954425 7.437788,2.720610 14.000000,1.000000 
	C80.020897,1.000000 146.041794,1.000000 212.879211,1.074604 
	C220.117310,3.211334 224.258759,7.456601 226.000000,14.000000 
	C226.000000,80.020897 226.000000,146.041794 225.999496,212.903687 
	C223.758102,220.048874 219.557159,224.274033 213.000000,226.000000 
	C194.645767,226.000000 176.291550,226.000000 157.327484,225.815689 
	C156.506546,225.403748 156.277283,225.196198 155.936676,224.547607 
	C155.888596,192.727005 155.933716,161.367523 156.181961,129.874878 
	C156.642960,129.537506 156.849380,129.290314 157.466919,128.921173 
	C165.622513,128.907593 173.315552,128.973007 181.132950,129.104187 
	C181.257324,129.169922 181.654724,129.172226 181.654724,129.172226 
	C181.654724,129.172226 182.009949,128.950912 182.216049,128.610657 
	C183.659821,117.363098 184.897491,106.455803 186.198456,94.990829 
	C175.858932,94.990829 166.430405,94.990829 156.866730,94.790955 
	C156.518799,94.344193 156.268311,94.144646 155.907303,93.529205 
	C155.884064,86.582718 155.733749,80.089859 156.045227,73.619240 
	C156.302902,68.266586 160.626907,64.877960 165.721481,65.025276 
	C172.321411,65.216118 178.931015,65.071846 185.635498,65.071846 
	C185.635498,53.616299 185.635498,42.758179 185.635498,31.920229 
	C174.195892,31.920229 163.060669,31.452930 151.978165,32.018585 
	C129.666122,33.157394 117.046654,46.182133 116.003548,68.530846 
	C115.608757,76.989479 115.508537,85.461845 115.042831,94.078506 
	C114.542450,94.477882 114.273293,94.726700 113.541275,95.053574 
	C107.346817,95.131622 101.615211,95.131622 95.832535,95.131622 
	C95.832535,106.809402 95.832535,117.853745 96.010239,129.240768 
	C100.790581,129.815155 105.392250,130.195007 109.996201,130.224808 
	C112.911896,130.243668 114.250099,131.234482 114.238846,134.267365 
	C114.125343,164.844788 114.070984,195.422424 114.000000,226.000000 
	C80.979103,226.000000 47.958210,226.000000 14.120786,225.925385 
	C6.884811,223.786636 2.740168,219.544418 1.000000,213.000000 
z"/>
<path fill="#FEFEFE" opacity="1.000000" stroke="none" 
	d="
M157.001892,94.990829 
	C166.430405,94.990829 175.858932,94.990829 186.198456,94.990829 
	C184.897491,106.455803 183.659821,117.363098 181.962128,128.591232 
	C181.337601,128.954208 181.173080,128.996323 181.008575,129.038437 
	C173.315552,128.973007 165.622513,128.907593 157.160355,128.908569 
	C156.253754,129.319321 156.116287,129.663681 155.978821,130.008041 
	C155.933716,161.367523 155.888596,192.727005 155.866974,224.793533 
	C155.926956,225.667053 155.963470,225.833527 156.000000,226.000000 
	C142.979111,226.000000 129.958206,226.000000 116.383751,225.537842 
	C115.830185,193.231155 115.830185,161.386627 115.830185,128.898087 
	C108.736259,128.898087 102.284401,128.898087 95.832535,128.898087 
	C95.832535,117.853745 95.832535,106.809402 95.832535,95.131622 
	C101.615211,95.131622 107.346817,95.131622 113.886406,95.066788 
	C114.887611,94.643959 115.080833,94.285957 115.274048,93.927956 
	C115.508537,85.461845 115.608757,76.989479 116.003548,68.530846 
	C117.046654,46.182133 129.666122,33.157394 151.978165,32.018585 
	C163.060669,31.452930 174.195892,31.920229 185.635498,31.920229 
	C185.635498,42.758179 185.635498,53.616299 185.635498,65.071846 
	C178.931015,65.071846 172.321411,65.216118 165.721481,65.025276 
	C160.626907,64.877960 156.302902,68.266586 156.045227,73.619240 
	C155.733749,80.089859 155.884064,86.582718 155.889343,93.835442 
	C156.296738,94.733566 156.649307,94.862198 157.001892,94.990829 
z"/>
<path fill="#657CAD" opacity="1.000000" stroke="none" 
	d="
M96.010239,129.240768 
	C102.284401,128.898087 108.736259,128.898087 115.830185,128.898087 
	C115.830185,161.386627 115.830185,193.231155 115.915092,225.537842 
	C115.555557,226.000000 115.111107,226.000000 114.333328,226.000000 
	C114.070984,195.422424 114.125343,164.844788 114.238846,134.267365 
	C114.250099,131.234482 112.911896,130.243668 109.996201,130.224808 
	C105.392250,130.195007 100.790581,129.815155 96.010239,129.240768 
z"/>
<path fill="#F6F7FA" opacity="1.000000" stroke="none" 
	d="
M13.523338,1.000000 
	C7.437788,2.720610 3.244997,6.954425 1.000500,13.627648 
	C1.000000,9.743702 1.000000,5.487404 1.000000,1.000000 
	C5.013751,1.000000 9.030214,1.000000 13.523338,1.000000 
z"/>
<path fill="#F6F7FA" opacity="1.000000" stroke="none" 
	d="
M226.000000,13.523338 
	C224.258759,7.456601 220.117310,3.211334 213.347870,1.074604 
	C217.256302,1.000000 221.512589,1.000000 226.000000,1.000000 
	C226.000000,5.013751 226.000000,9.030214 226.000000,13.523338 
z"/>
<path fill="#F6F7FA" opacity="1.000000" stroke="none" 
	d="
M1.000000,213.476654 
	C2.740168,219.544418 6.884811,223.786636 13.652128,225.925385 
	C9.743702,226.000000 5.487404,226.000000 1.000000,226.000000 
	C1.000000,221.986252 1.000000,217.969788 1.000000,213.476654 
z"/>
<path fill="#F6F7FA" opacity="1.000000" stroke="none" 
	d="
M213.476654,226.000000 
	C219.557159,224.274033 223.758102,220.048874 225.999496,213.372345 
	C226.000000,217.256302 226.000000,221.512589 226.000000,226.000000 
	C221.986252,226.000000 217.969788,226.000000 213.476654,226.000000 
z"/>
<path fill="#254A92" opacity="1.000000" stroke="none" 
	d="
M156.250000,226.000000 
	C155.963470,225.833527 155.926956,225.667053 155.960159,225.254654 
	C156.277283,225.196198 156.506546,225.403748 156.858826,225.815689 
	C157.000000,226.000000 156.500000,226.000000 156.250000,226.000000 
z"/>
<path fill="#2F5194" opacity="1.000000" stroke="none" 
	d="
M115.042831,94.078506 
	C115.080833,94.285957 114.887611,94.643959 114.349258,94.988739 
	C114.273293,94.726700 114.542450,94.477882 115.042831,94.078506 
z"/>
<path fill="#254A92" opacity="1.000000" stroke="none" 
	d="
M156.866730,94.790955 
	C156.649307,94.862198 156.296738,94.733566 155.962128,94.298691 
	C156.268311,94.144646 156.518799,94.344193 156.866730,94.790955 
z"/>
<path fill="#254A92" opacity="1.000000" stroke="none" 
	d="
M156.181961,129.874878 
	C156.116287,129.663681 156.253754,129.319321 156.697784,128.987564 
	C156.849380,129.290314 156.642960,129.537506 156.181961,129.874878 
z"/>
<path fill="#254A92" opacity="1.000000" stroke="none" 
	d="
M181.132950,129.104187 
	C181.173080,128.996323 181.337601,128.954208 181.756027,128.931488 
	C182.009949,128.950912 181.654724,129.172226 181.654724,129.172226 
	C181.654724,129.172226 181.257324,129.169922 181.132950,129.104187 
z"/>
</svg>