<svg version="1.1" id="Layer_2" xmlns="http://www.w3.org/2000/svg" xmlns:xlink="http://www.w3.org/1999/xlink" x="0px" y="0px"
	 width="30px" viewBox="0 0 225 225" enable-background="new 0 0 225 225" xml:space="preserve">
<path fill="#FFFFFF" opacity="1.000000" stroke="none" 
	d="
M226.000000,186.000000 
	C226.000000,199.314178 226.000000,212.628372 226.000000,225.941589 
	C150.999985,225.940643 75.999977,225.940643 1.000000,225.940643 
	C1.000000,212.899979 1.000000,199.918640 1.277396,186.678711 
	C4.734282,194.672882 9.346015,197.874115 18.208958,197.910095 
	C25.205063,197.938492 32.201374,197.915878 39.197594,197.915894 
	C43.447090,197.915909 47.696590,197.915894 52.179344,197.915894 
	C52.179344,168.543198 52.179344,139.896240 52.480667,111.348320 
	C72.977379,126.578987 93.172768,141.710602 113.480057,156.926071 
	C134.000000,141.594177 154.466354,126.302330 174.908096,111.039772 
	C174.883484,111.069061 174.876053,111.145210 174.891815,111.372429 
	C174.907562,111.599648 175.104446,112.010429 175.032944,112.473999 
	C175.016159,140.947556 175.070877,168.957520 175.259064,197.380859 
	C185.656525,197.836990 195.935287,197.554016 206.180252,198.017532 
	C215.724060,198.449310 222.510651,195.152695 226.000000,186.000000 
z"/>
<path fill="#FFFEFE" opacity="1.000000" stroke="none" 
	d="
M1.000000,47.000000 
	C1.000000,31.687849 1.000000,16.375700 1.000009,1.063004 
	C76.000023,1.062459 151.000031,1.062459 226.000000,1.062459 
	C226.000000,16.104174 226.000000,31.083427 225.665314,46.395515 
	C219.720367,29.407223 202.872513,23.874851 188.187805,34.595268 
	C183.651230,37.907139 179.268616,41.429890 174.498169,44.957687 
	C153.970688,60.196426 133.760559,75.333557 113.534523,90.482613 
	C111.419441,88.921600 109.680367,87.647820 107.951355,86.360519 
	C89.338921,72.503052 70.728073,58.643463 51.950611,44.496010 
	C43.889599,39.878868 38.570854,31.913700 28.499252,30.317703 
	C18.147097,28.677246 7.814486,32.476196 3.220264,42.272408 
	C2.481030,43.848671 1.740130,45.424156 1.000000,47.000000 
z"/>
<path fill="#0185F7" opacity="1.000000" stroke="none" 
	d="
M52.179344,111.249268 
	C52.179344,139.896240 52.179344,168.543198 52.179344,197.915894 
	C47.696590,197.915894 43.447090,197.915909 39.197594,197.915894 
	C32.201374,197.915878 25.205063,197.938492 18.208958,197.910095 
	C9.346015,197.874115 4.734282,194.672882 1.277396,186.210052 
	C1.000000,148.645767 1.000000,111.291542 1.338634,73.524490 
	C18.377699,85.554810 35.078129,97.997955 51.839607,110.662552 
	C51.900654,110.884010 52.179344,111.249268 52.179344,111.249268 
z"/>
<path fill="#01A94B" opacity="1.000000" stroke="none" 
	d="
M175.104446,112.010429 
	C175.104446,112.010429 174.907562,111.599648 175.160156,111.147400 
	C192.275177,98.130096 209.137589,85.565048 226.000000,73.000000 
	C226.000000,110.354225 226.000000,147.708450 226.000000,185.531342 
	C222.510651,195.152695 215.724060,198.449310 206.180252,198.017532 
	C195.935287,197.554016 185.656525,197.836990 175.530487,197.070404 
	C175.777817,195.698517 175.982346,195.050491 175.982773,194.402313 
	C175.999985,168.179916 176.011002,141.957489 175.961914,115.735184 
	C175.959595,114.493073 175.402939,113.251991 175.104446,112.010429 
z"/>
<path fill="#FEBC01" opacity="1.000000" stroke="none" 
	d="
M226.000000,72.531349 
	C209.137589,85.565048 192.275177,98.130096 175.144409,110.920181 
	C174.876053,111.145210 174.883484,111.069061 174.928162,110.570602 
	C174.920395,88.333450 174.867950,66.594772 174.815506,44.856087 
	C179.268616,41.429890 183.651230,37.907139 188.187805,34.595268 
	C202.872513,23.874851 219.720367,29.407223 225.665314,46.864174 
	C226.000000,55.354233 226.000000,63.708466 226.000000,72.531349 
z"/>
<path fill="#E51C19" opacity="1.000000" stroke="none" 
	d="
M51.778561,110.441101 
	C35.078129,97.997955 18.377699,85.554810 1.338634,73.055832 
	C1.000000,64.645767 1.000000,56.291534 1.000000,47.468651 
	C1.740130,45.424156 2.481030,43.848671 3.220264,42.272408 
	C7.814486,32.476196 18.147097,28.677246 28.499252,30.317703 
	C38.570854,31.913700 43.889599,39.878868 51.923035,44.978104 
	C51.967278,67.312790 51.872921,88.876945 51.778561,110.441101 
z"/>
<path fill="#FF4131" opacity="1.000000" stroke="none" 
	d="
M51.839607,110.662552 
	C51.872921,88.876945 51.967278,67.312790 52.089211,45.266541 
	C70.728073,58.643463 89.338921,72.503052 107.951355,86.360519 
	C109.680367,87.647820 111.419441,88.921600 113.534523,90.482613 
	C133.760559,75.333557 153.970688,60.196426 174.498169,44.957691 
	C174.867950,66.594772 174.920395,88.333450 174.952774,110.541306 
	C154.466354,126.302330 134.000000,141.594177 113.480057,156.926071 
	C93.172768,141.710602 72.977379,126.578987 52.480667,111.348320 
	C52.179344,111.249268 51.900654,110.884010 51.839607,110.662552 
z"/>
<path fill="#00A43D" opacity="1.000000" stroke="none" 
	d="
M175.032944,112.473999 
	C175.402939,113.251991 175.959595,114.493073 175.961914,115.735184 
	C176.011002,141.957489 175.999985,168.179916 175.982773,194.402313 
	C175.982346,195.050491 175.777817,195.698517 175.397034,196.657059 
	C175.070877,168.957520 175.016159,140.947556 175.032944,112.473999 
z"/>
</svg>