<svg version="1.1" id="Layer_4" xmlns="http://www.w3.org/2000/svg" xmlns:xlink="http://www.w3.org/1999/xlink" x="0px" y="0px"
	 width="30" viewBox="0 0 225 225" enable-background="new 0 0 225 225" xml:space="preserve" class="rounded-circle">
<path fill="#0B66C2" opacity="1.000000" stroke="none" 
	d="
M1.000000,212.000000 
	C1.000000,146.645767 1.000000,81.291542 1.000500,15.094135 
	C3.290521,7.322982 7.743671,2.680779 15.000000,1.000000 
	C80.354225,1.000000 145.708450,1.000000 211.882599,1.072178 
	C219.829605,3.176862 224.238480,7.818071 226.000000,15.000000 
	C226.000000,80.354225 226.000000,145.708450 225.999496,211.905807 
	C223.688660,219.654938 219.263565,224.326813 212.000000,226.000000 
	C146.645767,226.000000 81.291542,226.000000 15.117393,225.927826 
	C7.172570,223.821045 2.757253,219.186005 1.000000,212.000000 
M159.682053,131.254150 
	C159.589996,131.526749 159.652222,131.770035 160.083603,132.902328 
	C160.083603,152.838455 160.083603,172.774582 160.083603,192.729050 
	C171.527252,192.729050 182.237717,192.729050 192.946121,192.729050 
	C192.946121,169.025146 193.487793,145.693970 192.802628,122.398880 
	C192.027344,96.039444 169.757294,78.997742 143.762558,83.885559 
	C133.015182,85.906395 123.918228,90.838913 116.113220,100.475243 
	C116.113220,94.610321 116.113220,90.077652 116.113220,85.640877 
	C105.486305,85.640877 95.451317,85.640877 85.535187,85.640877 
	C85.535187,121.664055 85.535187,157.241974 85.535187,192.867462 
	C96.473869,192.867462 107.072121,192.867462 118.146431,192.867462 
	C118.146431,175.174652 118.107109,157.728394 118.181068,140.282623 
	C118.195122,136.968781 118.384605,133.608292 118.963112,130.352859 
	C120.946495,119.191742 130.350739,111.691879 141.707138,111.976196 
	C151.493774,112.221214 158.094437,119.160324 159.682053,131.254150 
M66.773354,112.500107 
	C66.773354,103.562477 66.773354,94.624847 66.773354,85.591354 
	C55.490097,85.591354 44.807419,85.591354 34.145996,85.591354 
	C34.145996,121.551117 34.145996,157.114136 34.145996,192.730896 
	C45.104420,192.730896 55.793369,192.730896 66.773346,192.730896 
	C66.773346,166.062592 66.773346,139.781357 66.773354,112.500107 
M31.142776,47.012817 
	C31.102037,48.177425 31.004728,49.343246 31.029638,50.506447 
	C31.206329,58.757050 36.600460,65.866890 44.550354,68.366684 
	C52.494694,70.864738 61.110043,68.069321 65.892822,61.441708 
	C70.644127,54.857700 70.752029,45.631405 65.984230,38.987465 
	C61.253841,32.395657 54.640041,29.752821 46.771912,31.128632 
	C38.377453,32.596474 33.425404,38.058846 31.142776,47.012817 
z"/>
<path fill="#F4F8FC" opacity="1.000000" stroke="none" 
	d="
M14.525872,1.000000 
	C7.743671,2.680779 3.290521,7.322982 1.000500,14.625478 
	C1.000000,10.409401 1.000000,5.818802 1.000000,1.000000 
	C5.348905,1.000000 9.700325,1.000000 14.525872,1.000000 
z"/>
<path fill="#F4F8FC" opacity="1.000000" stroke="none" 
	d="
M226.000000,14.525872 
	C224.238480,7.818071 219.829605,3.176862 212.351257,1.072178 
	C216.590591,1.000000 221.181198,1.000000 226.000000,1.000000 
	C226.000000,5.348905 226.000000,9.700325 226.000000,14.525872 
z"/>
<path fill="#F4F8FC" opacity="1.000000" stroke="none" 
	d="
M1.000000,212.474121 
	C2.757253,219.186005 7.172570,223.821045 14.648735,225.927826 
	C10.409401,226.000000 5.818802,226.000000 1.000000,226.000000 
	C1.000000,221.651093 1.000000,217.299683 1.000000,212.474121 
z"/>
<path fill="#F4F8FC" opacity="1.000000" stroke="none" 
	d="
M212.474121,226.000000 
	C219.263565,224.326813 223.688660,219.654938 225.999496,212.374466 
	C226.000000,216.590591 226.000000,221.181198 226.000000,226.000000 
	C221.651093,226.000000 217.299683,226.000000 212.474121,226.000000 
z"/>
<path fill="#FDFDFE" opacity="1.000000" stroke="none" 
	d="
M159.825439,131.023499 
	C158.094437,119.160324 151.493774,112.221214 141.707138,111.976196 
	C130.350739,111.691879 120.946495,119.191742 118.963112,130.352859 
	C118.384605,133.608292 118.195122,136.968781 118.181068,140.282623 
	C118.107109,157.728394 118.146431,175.174652 118.146431,192.867462 
	C107.072121,192.867462 96.473869,192.867462 85.535187,192.867462 
	C85.535187,157.241974 85.535187,121.664055 85.535187,85.640877 
	C95.451317,85.640877 105.486305,85.640877 116.113220,85.640877 
	C116.113220,90.077652 116.113220,94.610321 116.113220,100.475243 
	C123.918228,90.838913 133.015182,85.906395 143.762558,83.885559 
	C169.757294,78.997742 192.027344,96.039444 192.802628,122.398880 
	C193.487793,145.693970 192.946121,169.025146 192.946121,192.729050 
	C182.237717,192.729050 171.527252,192.729050 160.083603,192.729050 
	C160.083603,172.774582 160.083603,152.838455 160.023102,132.200439 
	C159.962601,131.498550 159.825439,131.023499 159.825439,131.023499 
z"/>
<path fill="#FCFDFE" opacity="1.000000" stroke="none" 
	d="
M66.773346,113.000114 
	C66.773346,139.781357 66.773346,166.062592 66.773346,192.730896 
	C55.793369,192.730896 45.104420,192.730896 34.145996,192.730896 
	C34.145996,157.114136 34.145996,121.551117 34.145996,85.591354 
	C44.807419,85.591354 55.490097,85.591354 66.773354,85.591354 
	C66.773354,94.624847 66.773354,103.562477 66.773346,113.000114 
z"/>
<path fill="#FCFDFE" opacity="1.000000" stroke="none" 
	d="
M31.206039,46.596481 
	C33.425404,38.058846 38.377453,32.596474 46.771912,31.128632 
	C54.640041,29.752821 61.253841,32.395657 65.984230,38.987465 
	C70.752029,45.631405 70.644127,54.857700 65.892822,61.441708 
	C61.110043,68.069321 52.494694,70.864738 44.550354,68.366684 
	C36.600460,65.866890 31.206329,58.757050 31.029638,50.506447 
	C31.004728,49.343246 31.102037,48.177425 31.206039,46.596481 
z"/>
<path fill="#005CBF" opacity="1.000000" stroke="none" 
	d="
M159.753754,131.138824 
	C159.825439,131.023499 159.962601,131.498550 159.915680,131.741302 
	C159.652222,131.770035 159.589996,131.526749 159.753754,131.138824 
z"/>
</svg>