<svg version="1.1" id="Layer_5" xmlns="http://www.w3.org/2000/svg" xmlns:xlink="http://www.w3.org/1999/xlink" x="0px" y="0px"
	 width="30px" viewBox="50 0 180 183" enable-background="new 0 0 275 172" xml:space="preserve" class="rounded-circle">
<path fill="#CA343D" opacity="1.000000" stroke="none" 
	d="
M161.000000,184.000000 
	C107.333344,184.000000 54.166679,184.000000 1.000014,184.000000 
	C1.000010,123.000015 1.000010,62.000027 1.000005,1.000031 
	C92.666649,1.000021 184.333298,1.000021 275.999939,1.000010 
	C275.999969,61.999969 275.999969,122.999939 276.000000,183.999954 
	C237.833328,184.000000 199.666672,184.000000 161.000000,184.000000 
M170.067276,73.456055 
	C169.751266,54.618645 156.519623,40.014503 138.084991,38.156292 
	C121.339714,36.468369 104.926109,48.487453 101.116577,65.226921 
	C97.388184,81.609886 106.259239,99.306908 120.893227,104.397858 
	C121.210815,102.249359 121.540039,100.134560 121.833855,98.014847 
	C123.052567,89.222755 127.340988,80.846291 125.366081,71.603714 
	C125.175728,70.712868 125.718231,69.659935 125.941666,68.687103 
	C126.950546,64.294357 130.405792,63.811340 133.567947,65.033798 
	C134.953568,65.569466 135.896942,68.714661 135.993851,70.725388 
	C136.100693,72.942162 135.225250,75.302414 134.389847,77.449234 
	C132.408875,82.539970 133.368576,86.387497 138.365326,88.683990 
	C139.701721,88.119774 140.947891,87.676575 142.119537,87.085670 
	C150.380890,82.919212 153.059540,66.331406 146.535645,59.849171 
	C141.562897,54.908165 131.589203,54.500084 125.244766,58.978016 
	C119.000252,63.385429 116.869720,71.494469 119.791008,78.323738 
	C120.616753,80.254143 120.368523,82.643959 120.702209,85.619965 
	C114.285423,83.184227 112.339958,79.167839 111.926613,74.251938 
	C110.474312,56.979603 125.968719,48.194386 140.141571,50.490173 
	C154.702896,52.848900 161.198456,63.016861 157.790115,77.335831 
	C153.761520,94.260529 139.924225,97.083870 131.264816,90.610703 
	C129.517883,95.909920 127.775841,101.194252 126.037964,106.465958 
	C148.189285,114.225227 170.368149,94.107643 170.067276,73.456055 
z"/>
<path fill="#FDFAFA" opacity="1.000000" stroke="none" 
	d="
M170.059494,73.921448 
	C170.368149,94.107643 148.189285,114.225227 126.037964,106.465958 
	C127.775841,101.194252 129.517883,95.909920 131.264816,90.610703 
	C139.924225,97.083870 153.761520,94.260529 157.790115,77.335831 
	C161.198456,63.016861 154.702896,52.848900 140.141571,50.490173 
	C125.968719,48.194386 110.474312,56.979603 111.926613,74.251938 
	C112.339958,79.167839 114.285423,83.184227 120.702209,85.619965 
	C120.368523,82.643959 120.616753,80.254143 119.791008,78.323738 
	C116.869720,71.494469 119.000252,63.385429 125.244766,58.978016 
	C131.589203,54.500084 141.562897,54.908165 146.535645,59.849171 
	C153.059540,66.331406 150.380890,82.919212 142.119537,87.085670 
	C140.947891,87.676575 139.701721,88.119774 138.365326,88.683990 
	C133.368576,86.387497 132.408875,82.539970 134.389847,77.449234 
	C135.225250,75.302414 136.100693,72.942162 135.993851,70.725388 
	C135.896942,68.714661 134.953568,65.569466 133.567947,65.033798 
	C130.405792,63.811340 126.950546,64.294357 125.941666,68.687103 
	C125.718231,69.659935 125.175728,70.712868 125.366081,71.603714 
	C127.340988,80.846291 123.052567,89.222755 121.833855,98.014847 
	C121.540039,100.134560 121.210815,102.249359 120.893227,104.397858 
	C106.259239,99.306908 97.388184,81.609886 101.116577,65.226921 
	C104.926109,48.487453 121.339714,36.468369 138.084991,38.156292 
	C156.519623,40.014503 169.751266,54.618645 170.059494,73.921448 
z"/>
</svg>