<svg version="1.1" id="Layer_10" xmlns="http://www.w3.org/2000/svg" xmlns:xlink="http://www.w3.org/1999/xlink" x="0px" y="0px"
	 width="30px" viewBox="0 0 225 225" enable-background="new 0 0 225 225" xml:space="preserve">
<path fill="#FEFEFE" opacity="1.000000" stroke="none" 
	d="
M150.000000,226.000000 
	C100.000000,226.000000 50.500008,226.000000 1.000007,226.000000 
	C1.000004,151.000000 1.000004,76.000015 1.000002,1.000017 
	C75.999992,1.000011 150.999985,1.000011 225.999969,1.000006 
	C225.999985,75.999985 225.999985,150.999969 226.000000,225.999969 
	C200.833328,226.000000 175.666672,226.000000 150.000000,226.000000 
M170.630753,200.168762 
	C178.002823,196.515198 185.629471,193.285156 192.658157,189.060333 
	C197.405960,186.206512 199.291901,181.261230 199.142639,175.344772 
	C198.464676,148.471680 177.657394,123.295021 151.340927,118.214920 
	C149.366989,117.833878 146.805618,118.681099 144.959045,119.732864 
	C123.975380,131.684677 103.102257,131.631653 82.076752,119.804543 
	C80.008095,118.640900 76.958260,117.880287 74.775795,118.466446 
	C51.406364,124.742928 35.895767,139.353531 29.829214,162.984772 
	C25.341814,180.464661 26.547369,187.078003 45.609486,196.066971 
	C58.495232,202.143402 72.342896,204.686310 86.398094,206.321259 
	C114.599350,209.601700 142.466599,208.336960 170.630753,200.168762 
M69.888634,79.488060 
	C73.490135,86.323769 76.166801,93.893028 80.885727,99.842415 
	C90.698318,112.213699 103.534615,119.520927 120.020386,116.206322 
	C139.445389,112.300758 150.509842,98.791199 156.590042,81.125481 
	C167.465485,49.527336 144.995544,18.267025 112.026627,19.095354 
	C82.305573,19.842081 60.818226,48.412041 69.888634,79.488060 
z"/>
<path fill="#010101" opacity="1.000000" stroke="none" 
	d="
M170.253311,200.310608 
	C142.466599,208.336960 114.599350,209.601700 86.398094,206.321259 
	C72.342896,204.686310 58.495232,202.143402 45.609486,196.066971 
	C26.547369,187.078003 25.341814,180.464661 29.829214,162.984772 
	C35.895767,139.353531 51.406364,124.742928 74.775795,118.466446 
	C76.958260,117.880287 80.008095,118.640900 82.076752,119.804543 
	C103.102257,131.631653 123.975380,131.684677 144.959045,119.732864 
	C146.805618,118.681099 149.366989,117.833878 151.340927,118.214920 
	C177.657394,123.295021 198.464676,148.471680 199.142639,175.344772 
	C199.291901,181.261230 197.405960,186.206512 192.658157,189.060333 
	C185.629471,193.285156 178.002823,196.515198 170.253311,200.310608 
z"/>
<path fill="#010101" opacity="1.000000" stroke="none" 
	d="
M69.800659,79.086273 
	C60.818226,48.412041 82.305573,19.842081 112.026627,19.095354 
	C144.995544,18.267025 167.465485,49.527336 156.590042,81.125481 
	C150.509842,98.791199 139.445389,112.300758 120.020386,116.206322 
	C103.534615,119.520927 90.698318,112.213699 80.885727,99.842415 
	C76.166801,93.893028 73.490135,86.323769 69.800659,79.086273 
z"/>
</svg>