<svg version="1.1" id="Layer_1" xmlns="http://www.w3.org/2000/svg" xmlns:xlink="http://www.w3.org/1999/xlink" x="0px" y="0px"
	 width="30px" viewBox="0 0 225 225" enable-background="new 0 0 225 225" xml:space="preserve">
<path fill="#FDFDFD" opacity="1.000000" stroke="none" 
	d="
M155.000000,226.000000 
	C103.333336,226.000000 52.166672,226.000000 1.000007,226.000000 
	C1.000005,151.000000 1.000005,76.000015 1.000002,1.000017 
	C75.999992,1.000011 150.999985,1.000011 225.999969,1.000006 
	C225.999985,75.999985 225.999985,150.999969 226.000000,225.999969 
	C202.500000,226.000000 179.000000,226.000000 155.000000,226.000000 
M199.391464,208.914108 
	C203.625046,205.156555 207.945877,201.491959 212.072525,197.620438 
	C218.875259,191.238281 220.015747,184.077072 214.413422,176.686035 
	C204.860321,164.082809 193.010117,153.862228 178.902191,146.623413 
	C170.592194,142.359543 162.365524,143.459473 155.181244,149.623047 
	C150.510529,153.630188 146.021179,157.857941 141.583832,162.125427 
	C136.675751,166.845627 130.925919,168.452362 124.633766,166.120224 
	C120.019867,164.410110 115.417458,162.205978 111.429955,159.354874 
	C98.984505,150.456238 88.865974,139.106155 79.950668,126.810226 
	C75.015182,120.003235 70.513496,112.671761 67.133392,104.996643 
	C62.179386,93.747704 64.768158,86.845573 74.520660,79.511642 
	C78.769241,76.316689 82.754990,72.751854 86.700027,69.178276 
	C93.012581,63.460102 95.031921,55.940502 92.548874,48.221676 
	C87.437042,32.331020 78.651230,18.413977 66.540901,6.861401 
	C60.795963,1.381058 53.882374,1.417624 47.412624,6.062839 
	C45.524803,7.418277 43.847019,9.062304 42.021534,10.509174 
	C31.472097,18.870615 22.213764,28.254694 16.961578,41.001152 
	C8.284325,62.059853 10.128772,82.953453 17.875956,103.719719 
	C27.894503,130.574356 45.036781,152.756012 64.231018,173.520966 
	C79.808098,190.372742 96.884941,205.464966 117.932701,215.168228 
	C145.842560,228.035019 173.134644,228.839813 199.391464,208.914108 
z"/>
<path fill="#020202" opacity="1.000000" stroke="none" 
	d="
M199.120667,209.145081 
	C173.134644,228.839813 145.842560,228.035019 117.932701,215.168228 
	C96.884941,205.464966 79.808098,190.372742 64.231018,173.520966 
	C45.036781,152.756012 27.894503,130.574356 17.875956,103.719719 
	C10.128772,82.953453 8.284325,62.059853 16.961578,41.001152 
	C22.213764,28.254694 31.472097,18.870615 42.021534,10.509174 
	C43.847019,9.062304 45.524803,7.418277 47.412624,6.062839 
	C53.882374,1.417624 60.795963,1.381058 66.540901,6.861401 
	C78.651230,18.413977 87.437042,32.331020 92.548874,48.221676 
	C95.031921,55.940502 93.012581,63.460102 86.700027,69.178276 
	C82.754990,72.751854 78.769241,76.316689 74.520660,79.511642 
	C64.768158,86.845573 62.179386,93.747704 67.133392,104.996643 
	C70.513496,112.671761 75.015182,120.003235 79.950668,126.810226 
	C88.865974,139.106155 98.984505,150.456238 111.429955,159.354874 
	C115.417458,162.205978 120.019867,164.410110 124.633766,166.120224 
	C130.925919,168.452362 136.675751,166.845627 141.583832,162.125427 
	C146.021179,157.857941 150.510529,153.630188 155.181244,149.623047 
	C162.365524,143.459473 170.592194,142.359543 178.902191,146.623413 
	C193.010117,153.862228 204.860321,164.082809 214.413422,176.686035 
	C220.015747,184.077072 218.875259,191.238281 212.072525,197.620438 
	C207.945877,201.491959 203.625046,205.156555 199.120667,209.145081 
z"/>
</svg>