<svg version="1.1" id="Layer_7" xmlns="http://www.w3.org/2000/svg" xmlns:xlink="http://www.w3.org/1999/xlink" x="0px" y="0px"
	 width="30px" viewBox="0 0 225 225" enable-background="new 0 0 225 225" xml:space="preserve" class="rounded-circle">
<path fill="#1DA0F1" opacity="1.000000" stroke="none" 
	d="
M113.000000,226.000000 
	C75.333336,226.000000 38.166672,226.000000 1.000005,226.000000 
	C1.000003,151.000000 1.000003,76.000015 1.000002,1.000015 
	C75.999992,1.000010 150.999985,1.000010 225.999969,1.000005 
	C225.999985,75.999985 225.999985,150.999969 226.000000,225.999969 
	C188.500000,226.000000 151.000000,226.000000 113.000000,226.000000 
M61.343811,110.029411 
	C64.550751,113.764816 67.757690,117.500229 71.113152,121.408630 
	C70.350609,121.667191 68.712646,122.222595 66.901741,122.836632 
	C70.637901,132.947083 78.429062,137.818909 89.156792,139.964767 
	C78.289978,148.114426 66.779442,150.620804 53.568504,150.063461 
	C62.281109,155.705566 78.011963,162.629349 90.165154,161.082306 
	C96.894028,160.225769 103.873726,160.434830 110.358490,158.719711 
	C140.875381,150.648438 162.203979,122.843597 163.096695,91.204033 
	C163.169250,88.632149 164.972504,85.844093 166.622406,83.644768 
	C169.006561,80.466675 171.986053,77.735214 175.506882,73.960503 
	C172.538406,74.609169 170.958389,75.060051 169.347046,75.267052 
	C168.376114,75.391785 167.356445,75.137108 166.358704,75.052925 
	C166.666275,74.043106 166.804688,72.936737 167.315018,72.042641 
	C168.552170,69.875107 169.962479,67.806404 172.067947,64.494690 
	C169.562454,65.261505 168.597107,65.404251 167.780350,65.831200 
	C161.495560,69.116447 156.080475,69.164139 149.454865,65.010185 
	C136.552628,56.921093 119.386520,63.619259 114.225876,78.060242 
	C112.673813,82.403366 112.669266,87.299507 111.901207,92.297523 
	C91.698097,91.105591 75.108162,82.054893 61.317585,66.500534 
	C55.312912,78.044586 57.739407,88.001099 64.787086,98.398048 
	C62.581142,98.114227 60.375198,97.830399 57.018394,97.398506 
	C58.445553,101.677162 59.727673,105.521004 61.343811,110.029411 
z"/>
<path fill="#FDFEFF" opacity="1.000000" stroke="none" 
	d="
M61.176804,109.697128 
	C59.727673,105.521004 58.445553,101.677162 57.018394,97.398506 
	C60.375198,97.830399 62.581142,98.114227 64.787086,98.398048 
	C57.739407,88.001099 55.312912,78.044586 61.317585,66.500534 
	C75.108162,82.054893 91.698097,91.105591 111.901207,92.297523 
	C112.669266,87.299507 112.673813,82.403366 114.225876,78.060242 
	C119.386520,63.619259 136.552628,56.921093 149.454865,65.010185 
	C156.080475,69.164139 161.495560,69.116447 167.780350,65.831200 
	C168.597107,65.404251 169.562454,65.261505 172.067947,64.494690 
	C169.962479,67.806404 168.552170,69.875107 167.315018,72.042641 
	C166.804688,72.936737 166.666275,74.043106 166.358704,75.052933 
	C167.356445,75.137108 168.376114,75.391785 169.347046,75.267052 
	C170.958389,75.060051 172.538406,74.609169 175.506882,73.960503 
	C171.986053,77.735214 169.006561,80.466675 166.622406,83.644768 
	C164.972504,85.844093 163.169250,88.632149 163.096695,91.204033 
	C162.203979,122.843597 140.875381,150.648438 110.358490,158.719711 
	C103.873726,160.434830 96.894028,160.225769 90.165154,161.082306 
	C78.011963,162.629349 62.281109,155.705566 53.568504,150.063461 
	C66.779442,150.620804 78.289978,148.114426 89.156792,139.964767 
	C78.429062,137.818909 70.637901,132.947083 66.901741,122.836632 
	C68.712646,122.222595 70.350609,121.667191 71.113152,121.408630 
	C67.757690,117.500229 64.550751,113.764816 61.176804,109.697128 
z"/>
</svg>