<svg version="1.1" id="Layer_1" xmlns="http://www.w3.org/2000/svg" xmlns:xlink="http://www.w3.org/1999/xlink" x="0px" y="0px"
	 width="30px" viewBox="0 0 225 225" enable-background="new 0 0 225 225" xml:space="preserve">
<path fill="#E64D3C" opacity="1.000000" stroke="none" 
	d="
M105.000000,1.000000 
	C105.750000,1.000000 106.500000,1.000000 107.819344,1.257828 
	C109.229927,1.621186 110.071159,1.726716 111.342606,1.872024 
	C113.211067,1.885280 114.649307,1.858760 116.410011,1.851980 
	C117.488312,1.581146 118.244156,1.290573 119.000000,1.000000 
	C119.750000,1.000000 120.500000,1.000000 121.808212,1.346455 
	C127.178535,2.945099 132.162994,3.748814 136.775116,5.521352 
	C169.820328,18.221363 186.054535,51.944492 176.665100,87.853569 
	C172.299484,104.549484 163.611694,118.996201 153.336121,132.979156 
	C142.269470,144.174591 131.623459,155.338943 120.548553,166.060242 
	C115.130768,171.305054 111.878334,171.296707 106.346558,165.956482 
	C95.137062,155.135147 84.369530,143.856018 73.264252,132.456299 
	C63.287350,119.012901 55.137234,105.031082 50.687122,89.077568 
	C37.737617,42.653980 67.778030,7.143405 103.449539,1.928459 
	C103.999840,1.848008 104.484634,1.319441 105.000000,1.000000 
M97.795227,40.152679 
	C96.693497,40.895721 95.545609,41.579151 94.497124,42.390957 
	C83.040710,51.261349 79.206932,67.035843 85.318054,80.066360 
	C91.299278,92.819908 105.686256,100.329788 119.084885,97.488701 
	C131.997940,94.750572 140.559296,86.881485 143.645172,74.138344 
	C146.689453,61.566902 142.814972,50.566883 132.598618,42.594524 
	C122.051331,34.363914 110.415047,33.671890 97.795227,40.152679 
z"/>
<path fill="#FFFFFE" opacity="1.000000" stroke="none" 
	d="
M104.531342,1.000000 
	C104.484634,1.319441 103.999840,1.848008 103.449539,1.928459 
	C67.778030,7.143405 37.737617,42.653980 50.687122,89.077568 
	C55.137234,105.031082 63.287350,119.012901 72.769760,132.527252 
	C60.542114,132.919342 48.653393,132.931000 36.764675,132.942993 
	C31.546982,132.948273 27.040787,134.472321 23.626072,139.162201 
	C19.522186,144.739182 20.074495,150.783386 20.548096,157.306625 
	C20.422670,173.769089 20.720137,189.765305 20.251968,205.739090 
	C19.972481,215.275116 23.019304,222.177643 32.000000,226.000000 
	C21.679237,226.000000 11.358474,226.000000 1.018855,226.000000 
	C1.018855,151.103806 1.018855,76.207611 1.018855,1.000000 
	C35.353600,1.000000 69.708145,1.000000 104.531342,1.000000 
z"/>
<path fill="#FFFFFE" opacity="1.000000" stroke="none" 
	d="
M153.580109,132.765579 
	C163.611694,118.996201 172.299484,104.549484 176.665100,87.853569 
	C186.054535,51.944492 169.820328,18.221363 136.775116,5.521352 
	C132.162994,3.748814 127.178535,2.945099 122.183212,1.346455 
	C156.624496,1.000000 191.248993,1.000000 225.936737,1.000000 
	C225.936737,75.999985 225.936737,150.999985 225.936737,226.000000 
	C215.912994,226.000000 205.925156,226.000000 195.643097,225.695862 
	C203.167999,222.731323 206.616486,217.044434 206.622147,209.020370 
	C206.636017,189.364578 206.807434,169.705643 206.466812,150.055756 
	C206.402496,146.345535 204.264282,142.671249 202.954102,138.657928 
	C197.365494,131.676971 189.905533,132.782318 182.200943,133.069550 
	C172.368271,132.924728 162.974182,132.845154 153.580109,132.765579 
z"/>
<path fill="#F1D55B" opacity="1.000000" stroke="none" 
	d="
M182.639542,133.134796 
	C189.905533,132.782318 197.365494,131.676971 202.708527,138.888733 
	C178.900299,159.049622 155.208740,178.657227 130.992798,198.698807 
	C147.326385,207.987549 163.163193,216.993774 179.000000,226.000000 
	C167.645767,226.000000 156.291550,226.000000 144.223907,225.762482 
	C139.313782,223.144714 135.130539,220.740356 130.918213,218.388092 
	C94.164680,197.863754 57.405960,177.348724 20.648777,156.830948 
	C20.074495,150.783386 19.522186,144.739182 23.920380,139.346741 
	C53.423733,155.500504 82.314606,171.707275 111.304367,187.735199 
	C112.769150,188.545059 115.754326,188.623169 116.910118,187.675003 
	C138.920715,169.617767 160.762619,151.354935 182.639542,133.134796 
z"/>
<path fill="#50BA70" opacity="1.000000" stroke="none" 
	d="
M20.548096,157.306625 
	C57.405960,177.348724 94.164680,197.863754 130.918213,218.388092 
	C135.130539,220.740356 139.313782,223.144714 143.755249,225.762482 
	C106.979103,226.000000 69.958214,226.000000 32.468658,226.000000 
	C23.019304,222.177643 19.972481,215.275116 20.251968,205.739090 
	C20.720137,189.765305 20.422670,173.769089 20.548096,157.306625 
z"/>
<path fill="#51BB70" opacity="1.000000" stroke="none" 
	d="
M179.466858,226.000000 
	C163.163193,216.993774 147.326385,207.987549 130.992798,198.698807 
	C155.208740,178.657227 178.900299,159.049622 202.837448,139.211212 
	C204.264282,142.671249 206.402496,146.345535 206.466812,150.055756 
	C206.807434,169.705643 206.636017,189.364578 206.622147,209.020370 
	C206.616486,217.044434 203.167999,222.731323 195.174438,225.695862 
	C189.977905,226.000000 184.955811,226.000000 179.466858,226.000000 
z"/>
<path fill="#EB7569" opacity="1.000000" stroke="none" 
	d="
M116.087555,1.832240 
	C114.649307,1.858760 113.211067,1.885280 111.365677,1.664328 
	C110.958527,1.416854 111.000000,1.000000 111.000000,1.000000 
	C112.388893,1.000000 113.777779,1.000000 115.604279,1.208159 
	C116.041893,1.416318 116.087555,1.832240 116.087555,1.832240 
z"/>
<path fill="#EA8D85" opacity="1.000000" stroke="none" 
	d="
M110.625000,1.000000 
	C111.000000,1.000000 110.958527,1.416854 110.935463,1.624550 
	C110.071159,1.726716 109.229927,1.621186 108.194344,1.257828 
	C108.750000,1.000000 109.500000,1.000000 110.625000,1.000000 
z"/>
<path fill="#EA8D85" opacity="1.000000" stroke="none" 
	d="
M116.410011,1.851980 
	C116.087555,1.832240 116.041893,1.416318 116.020950,1.208159 
	C116.750000,1.000000 117.500000,1.000000 118.625000,1.000000 
	C118.244156,1.290573 117.488312,1.581146 116.410011,1.851980 
z"/>
<path fill="#50BA6F" opacity="1.000000" stroke="none" 
	d="
M182.200943,133.069550 
	C160.762619,151.354935 138.920715,169.617767 116.910118,187.675003 
	C115.754326,188.623169 112.769150,188.545059 111.304367,187.735199 
	C82.314606,171.707275 53.423733,155.500504 24.218472,139.145508 
	C27.040787,134.472321 31.546982,132.948273 36.764675,132.942993 
	C48.653393,132.931000 60.542114,132.919342 72.925316,132.836578 
	C84.369530,143.856018 95.137062,155.135147 106.346558,165.956482 
	C111.878334,171.296707 115.130768,171.305054 120.548553,166.060242 
	C131.623459,155.338943 142.269470,144.174591 153.336121,132.979156 
	C162.974182,132.845154 172.368271,132.924728 182.200943,133.069550 
z"/>
<path fill="#ECEFF0" opacity="1.000000" stroke="none" 
	d="
M98.127808,39.989067 
	C110.415047,33.671890 122.051331,34.363914 132.598618,42.594524 
	C142.814972,50.566883 146.689453,61.566902 143.645172,74.138344 
	C140.559296,86.881485 131.997940,94.750572 119.084885,97.488701 
	C105.686256,100.329788 91.299278,92.819908 85.318054,80.066360 
	C79.206932,67.035843 83.040710,51.261349 94.497124,42.390957 
	C95.545609,41.579151 96.693497,40.895721 98.127808,39.989067 
z"/>
</svg>