<svg version="1.1" id="Layer_9" xmlns="http://www.w3.org/2000/svg" xmlns:xlink="http://www.w3.org/1999/xlink" x="0px" y="0px"
	 width="30px" viewBox="0 0 225 225" enable-background="new 0 0 225 225" xml:space="preserve" class="rounded-circle">
<path fill="#1BD741" opacity="1.000000" stroke="none" 
	d="
M124.000000,226.000000 
	C82.666672,226.000000 41.833340,226.000000 1.000005,226.000000 
	C1.000004,151.000000 1.000004,76.000015 1.000002,1.000015 
	C75.999992,1.000010 150.999985,1.000010 225.999969,1.000005 
	C225.999985,75.999985 225.999985,150.999969 226.000000,225.999969 
	C192.166672,226.000000 158.333328,226.000000 124.000000,226.000000 
M98.360367,190.452774 
	C104.402710,191.262299 110.472893,192.865341 116.479431,192.654572 
	C122.299408,192.450363 128.094910,190.544632 133.830566,189.104889 
	C169.304703,180.200211 198.569092,143.764450 190.943344,99.566963 
	C184.378387,61.517612 150.366058,33.886787 111.979660,34.816105 
	C53.702000,36.226986 17.179678,97.818100 43.824974,149.739059 
	C44.938354,151.908585 45.003883,155.146378 44.380753,157.585892 
	C41.481472,168.936295 38.167568,180.180786 34.770626,192.287872 
	C44.176910,189.882706 52.823681,187.775513 61.410194,185.446182 
	C69.551674,183.237595 77.376686,181.130280 85.430161,186.530762 
	C88.798401,188.789444 93.511795,189.042160 98.360367,190.452774 
z"/>
<path fill="#FAFEFB" opacity="1.000000" stroke="none" 
	d="
M97.986984,190.329834 
	C93.511795,189.042160 88.798401,188.789444 85.430161,186.530762 
	C77.376686,181.130280 69.551674,183.237595 61.410194,185.446182 
	C52.823681,187.775513 44.176910,189.882706 34.770626,192.287872 
	C38.167568,180.180786 41.481472,168.936295 44.380753,157.585892 
	C45.003883,155.146378 44.938354,151.908585 43.824974,149.739059 
	C17.179678,97.818100 53.702000,36.226986 111.979660,34.816105 
	C150.366058,33.886787 184.378387,61.517612 190.943344,99.566963 
	C198.569092,143.764450 169.304703,180.200211 133.830566,189.104889 
	C128.094910,190.544632 122.299408,192.450363 116.479431,192.654572 
	C110.472893,192.865341 104.402710,191.262299 97.986984,190.329834 
M161.896362,69.619240 
	C147.841812,54.500912 130.368637,46.906979 109.884918,48.305092 
	C60.106297,51.702721 32.734238,104.646034 58.022240,147.666550 
	C59.179379,149.635086 59.467213,152.635971 59.012806,154.928665 
	C57.841774,160.837051 56.026501,166.617752 54.225681,173.358841 
	C61.150837,171.637238 66.856323,169.905289 72.687553,168.910034 
	C75.344009,168.456635 78.698975,168.653214 80.972672,169.923370 
	C108.922935,185.537216 144.109924,179.120590 164.104202,154.514832 
	C184.300766,129.660141 183.581345,94.678551 161.896362,69.619240 
z"/>
<path fill="#1CD742" opacity="1.000000" stroke="none" 
	d="
M162.132797,69.885750 
	C183.581345,94.678551 184.300766,129.660141 164.104202,154.514832 
	C144.109924,179.120590 108.922935,185.537216 80.972672,169.923370 
	C78.698975,168.653214 75.344009,168.456635 72.687553,168.910034 
	C66.856323,169.905289 61.150837,171.637238 54.225681,173.358841 
	C56.026501,166.617752 57.841774,160.837051 59.012806,154.928665 
	C59.467213,152.635971 59.179379,149.635086 58.022240,147.666550 
	C32.734238,104.646034 60.106297,51.702721 109.884918,48.305092 
	C130.368637,46.906979 147.841812,54.500912 162.132797,69.885750 
M100.922668,136.582626 
	C109.603966,141.022842 118.419846,145.223434 126.915184,149.994751 
	C131.870972,152.778122 136.385742,151.188889 140.945160,149.801849 
	C146.088226,148.237244 149.966690,144.928436 151.989090,139.749908 
	C154.951843,132.163574 154.685516,131.493500 147.288315,128.129288 
	C145.625473,127.373039 143.959717,126.623161 142.298431,125.863487 
	C133.145844,121.678200 133.108566,121.647812 126.974373,129.426926 
	C125.316734,131.529068 123.830795,133.149124 120.776016,131.858383 
	C109.849564,127.241570 101.100037,120.090073 95.182503,109.779724 
	C94.466942,108.532967 94.726257,105.510475 95.691795,104.712898 
	C101.857468,99.619705 101.823433,94.059578 97.927444,87.751770 
	C96.978630,86.215576 96.486588,84.399590 95.763168,82.721458 
	C92.461548,75.062706 85.689133,73.974892 79.867416,80.046860 
	C74.142578,86.017784 72.647789,93.104866 74.663498,100.827553 
	C78.597221,115.898705 88.942123,126.440842 100.922668,136.582626 
z"/>
<path fill="#FBFEFC" opacity="1.000000" stroke="none" 
	d="
M100.644775,136.357544 
	C88.942123,126.440842 78.597221,115.898705 74.663498,100.827553 
	C72.647789,93.104866 74.142578,86.017784 79.867416,80.046860 
	C85.689133,73.974892 92.461548,75.062706 95.763168,82.721458 
	C96.486588,84.399590 96.978630,86.215576 97.927444,87.751770 
	C101.823433,94.059578 101.857468,99.619705 95.691795,104.712898 
	C94.726257,105.510475 94.466942,108.532967 95.182503,109.779724 
	C101.100037,120.090073 109.849564,127.241570 120.776016,131.858383 
	C123.830795,133.149124 125.316734,131.529068 126.974373,129.426926 
	C133.108566,121.647812 133.145844,121.678200 142.298431,125.863487 
	C143.959717,126.623161 145.625473,127.373039 147.288315,128.129288 
	C154.685516,131.493500 154.951843,132.163574 151.989090,139.749908 
	C149.966690,144.928436 146.088226,148.237244 140.945160,149.801849 
	C136.385742,151.188889 131.870972,152.778122 126.915184,149.994751 
	C118.419846,145.223434 109.603966,141.022842 100.644775,136.357544 
z"/>
</svg>